<svg width="115" height="65" viewBox="0 0 115 65" fill="none" xmlns="http://www.w3.org/2000/svg">
<path d="M115 55.772H101.156V38.313H115V41.806H105.647V45.173H113.009V48.665H105.651V52.282H115.004L115 55.772Z" fill="#070606"/>
<path d="M83.919 52.155C88.4757 52.405 91.5603 52.5296 93.173 52.529C93.34 52.5418 93.5077 52.5185 93.6648 52.4604C93.8219 52.4024 93.9646 52.311 94.083 52.1927C94.2015 52.0743 94.2929 51.9317 94.3511 51.7747C94.4093 51.6177 94.4328 51.45 94.42 51.283V49.037H88.682C87.9995 49.1622 87.2968 49.1198 86.6343 48.9135C85.9718 48.7071 85.3693 48.3429 84.8787 47.8523C84.388 47.3616 84.0239 46.7592 83.8175 46.0967C83.6112 45.4342 83.5688 44.7315 83.694 44.049V43.306C83.5688 42.6235 83.6112 41.9208 83.8175 41.2583C84.0239 40.5958 84.388 39.9933 84.8787 39.5026C85.3693 39.012 85.9718 38.6478 86.6343 38.4415C87.2968 38.2351 87.9995 38.1927 88.682 38.318H97.437V41.806H89.681C89.4771 41.776 89.269 41.7942 89.0734 41.859C88.8777 41.9238 88.6999 42.0334 88.5542 42.1792C88.4085 42.3249 88.2988 42.5027 88.234 42.6983C88.1692 42.894 88.1511 43.1021 88.181 43.306V43.806C88.1511 44.0099 88.1692 44.218 88.234 44.4136C88.2988 44.6093 88.4085 44.7871 88.5542 44.9328C88.6999 45.0785 88.8777 45.1882 89.0734 45.253C89.269 45.3178 89.4771 45.3359 89.681 45.306H94.17C94.8169 45.1966 95.4805 45.2436 96.1055 45.443C96.7305 45.6425 97.2986 45.9886 97.7625 46.4525C98.2264 46.9164 98.5725 47.4845 98.772 48.1095C98.9715 48.7345 99.0184 49.3981 98.909 50.045V51.292C99.0181 51.9387 98.9708 52.6021 98.7712 53.2268C98.5716 53.8515 98.2254 54.4194 97.7616 54.883C97.2977 55.3467 96.7297 55.6926 96.1049 55.8919C95.4801 56.0913 94.8167 56.1383 94.17 56.029C93.3227 56.029 92.425 56.0126 91.477 55.98L89.182 55.88C87.486 55.7966 85.7317 55.6806 83.919 55.532V52.155Z" fill="#070606"/>
<path d="M76.9611 38.313H81.451V51.033C81.5763 51.7155 81.5339 52.4182 81.3275 53.0807C81.1212 53.7432 80.757 54.3456 80.2664 54.8363C79.7757 55.327 79.1732 55.6911 78.5107 55.8975C77.8482 56.1038 77.1455 56.1462 76.463 56.021H70.725C70.0425 56.1462 69.3399 56.1038 68.6774 55.8975C68.0149 55.6911 67.4124 55.327 66.9217 54.8363C66.4311 54.3456 66.0669 53.7432 65.8606 53.0807C65.6542 52.4182 65.6118 51.7155 65.7371 51.033V38.313H70.227V51.033C70.1971 51.2369 70.2153 51.445 70.2801 51.6406C70.3449 51.8363 70.4545 52.0141 70.6002 52.1598C70.746 52.3055 70.9238 52.4152 71.1194 52.4799C71.3151 52.5447 71.5231 52.5629 71.727 52.533H75.468C75.672 52.5631 75.8802 52.5451 76.0759 52.4804C76.2717 52.4157 76.4495 52.3061 76.5953 52.1603C76.7411 52.0145 76.8508 51.8366 76.9155 51.6409C76.9802 51.4451 76.9982 51.2369 76.968 51.033L76.9611 38.313Z" fill="#070606"/>
<path d="M63.244 51.033C63.3693 51.7155 63.3269 52.4182 63.1205 53.0807C62.9142 53.7432 62.55 54.3457 62.0594 54.8363C61.5687 55.327 60.9662 55.6911 60.3037 55.8975C59.6412 56.1038 58.9385 56.1462 58.256 56.021H52.02C51.3374 56.1464 50.6346 56.1041 49.9719 55.8978C49.3093 55.6915 48.7066 55.3274 48.2158 54.8368C47.725 54.3461 47.3606 53.7436 47.1541 53.081C46.9475 52.4185 46.905 51.7157 47.03 51.033V43.052C46.9046 42.3692 46.9469 41.6662 47.1532 41.0033C47.3596 40.3405 47.7239 39.7376 48.2148 39.2467C48.7057 38.7559 49.3085 38.3916 49.9713 38.1852C50.6342 37.9788 51.3372 37.9365 52.02 38.062H58.256C58.9387 37.9367 59.6416 37.979 60.3043 38.1855C60.967 38.392 61.5696 38.7563 62.0603 39.2472C62.5511 39.7381 62.9152 40.3409 63.1214 41.0036C63.3275 41.6664 63.3696 42.3693 63.244 43.052V51.033ZM58.754 43.052C58.7838 42.8481 58.7654 42.6401 58.7006 42.4446C58.6357 42.249 58.5261 42.0713 58.3804 41.9256C58.2347 41.78 58.057 41.6703 57.8615 41.6055C57.6659 41.5406 57.4579 41.5223 57.254 41.552H53.0141C52.8102 41.5225 52.6023 41.541 52.4068 41.6059C52.2114 41.6709 52.0338 41.7805 51.8882 41.9261C51.7425 42.0718 51.6329 42.2494 51.5679 42.4448C51.503 42.6403 51.4845 42.8482 51.5141 43.052V51.033C51.4841 51.2369 51.5023 51.445 51.5671 51.6406C51.6319 51.8363 51.7415 52.0141 51.8872 52.1598C52.033 52.3055 52.2107 52.4152 52.4064 52.48C52.602 52.5448 52.8101 52.5629 53.0141 52.533H57.254C57.458 52.5629 57.666 52.5448 57.8617 52.48C58.0573 52.4152 58.2351 52.3055 58.3808 52.1598C58.5266 52.0141 58.6362 51.8363 58.701 51.6406C58.7658 51.445 58.784 51.2369 58.754 51.033V43.052Z" fill="#070606"/>
<path d="M44.537 55.772H40.048V48.663H33.812V55.772H29.322V38.313H33.812V45.171H40.048V38.313H44.537V55.772Z" fill="#070606"/>
<path d="M62.106 8.979H66.906L71.081 17.579L75.254 8.979H80.061L73.361 22.006V26.685H68.806V22.006L62.106 8.979Z" fill="#070606"/>
<path d="M51.582 26.685H47.028V8.979H51.582V15.934H53.858L57.803 8.979H62.609L57.651 17.706L62.584 26.685H57.778L53.858 19.479H51.582V26.685Z" fill="#070606"/>
<path d="M29.55 23.017C34.1713 23.271 37.2996 23.3973 38.935 23.396C39.1043 23.409 39.2743 23.3853 39.4336 23.3264C39.5928 23.2676 39.7375 23.175 39.8576 23.0551C39.9778 22.9351 40.0706 22.7906 40.1297 22.6315C40.1887 22.4723 40.2127 22.3023 40.2 22.133V19.855H34.381C33.6888 19.982 32.9761 19.939 32.3042 19.7297C31.6322 19.5204 31.0212 19.1511 30.5235 18.6534C30.0259 18.1558 29.6565 17.5448 29.4473 16.8728C29.238 16.2009 29.195 15.4882 29.322 14.796V14.037C29.195 13.3448 29.238 12.6321 29.4473 11.9601C29.6565 11.2882 30.0259 10.6772 30.5235 10.1795C31.0212 9.6819 31.6322 9.31255 32.3042 9.10326C32.9761 8.89396 33.6888 8.85097 34.381 8.97798H43.26V12.519H35.394C35.1878 12.4895 34.9777 12.5085 34.7801 12.5744C34.5826 12.6403 34.4031 12.7513 34.2558 12.8986C34.1086 13.0459 33.9978 13.2255 33.932 13.4231C33.8663 13.6207 33.8474 13.8308 33.877 14.037V14.543C33.8474 14.7491 33.8663 14.9593 33.932 15.1569C33.9978 15.3545 34.1086 15.5341 34.2558 15.6814C34.4031 15.8287 34.5826 15.9397 34.7801 16.0056C34.9777 16.0715 35.1878 16.0904 35.394 16.061H39.946C40.602 15.95 41.275 15.9976 41.9088 16.1999C42.5427 16.4022 43.1189 16.7532 43.5893 17.2236C44.0598 17.6941 44.4108 18.2703 44.6131 18.9041C44.8153 19.538 44.863 20.211 44.752 20.867V22.132C44.8619 22.7875 44.8134 23.4599 44.6107 24.0929C44.4079 24.7259 44.0567 25.3013 43.5864 25.771C43.1161 26.2407 42.5403 26.5912 41.9071 26.7931C41.2738 26.9951 40.6014 27.0427 39.946 26.932C39.0867 26.932 38.1763 26.9157 37.215 26.883L34.888 26.783C33.168 26.6983 31.389 26.5807 29.551 26.43L29.55 23.017Z" fill="#070606"/>
<path d="M17.959 43.45L0 61.409V65.001L17.959 47.042V43.45Z" fill="#070606"/>
<path d="M17.959 36.266L0 54.225V57.817L17.959 39.859V36.266Z" fill="#070606"/>
<path d="M17.959 28.874L12.571 23.434L17.959 17.994V14.367L0 32.5V36.127L5.388 41.567L0 47.007V50.634L17.959 32.501V28.874ZM7.18401 39.754L1.79601 34.314L3.59601 32.501L8.98401 37.941L7.18401 39.754ZM10.776 36.127L5.388 30.687L7.188 28.874L12.576 34.314L10.776 36.127ZM14.368 32.5L8.98001 27.06L10.78 25.247L16.168 30.687L14.368 32.5Z" fill="#070606"/>
<path d="M17.959 7.18301L0 25.142V28.734L17.959 10.775V7.18301Z" fill="#070606"/>
<path d="M17.959 0L0 17.959V21.551L17.959 3.592V0Z" fill="#070606"/>
</svg>
